<svg width="128" height="105" viewBox="0 0 128 105" fill="none" xmlns="http://www.w3.org/2000/svg">
<path d="M120.462 24.496C111.746 15.5299 98.1439 14.293 88.0796 20.7852C85.2162 22.6321 81.7491 23.2514 78.4228 22.5129C70.5499 20.7647 62.3143 21.9587 55.2998 25.7658C50.5841 28.3251 44.8402 27.8802 40.4397 24.8105C37.5185 22.773 34.1263 21.3129 30.3988 20.626C16.5714 18.0777 3.12795 27.2489 0.469886 41.0553C-2.24854 55.1747 7.11144 68.7439 21.2206 71.2573C24.6678 71.8713 28.0767 71.7678 31.2942 71.0537C36.516 69.8949 41.9718 71.8324 45.3418 75.9863C47.4688 78.6082 50.0338 80.9482 53.0132 82.8924C68.4101 92.9391 89.0361 88.6017 99.0827 73.205C99.0935 73.1888 99.1039 73.1723 99.1147 73.1561C100.955 70.3254 103.816 68.3074 107.126 67.6392C111.953 66.6647 116.554 64.2959 120.284 60.532C130.105 50.622 130.187 34.4998 120.462 24.496Z" fill="url(#paint0_linear)"/>
<path opacity="0.1" d="M113.735 13.2257V76.6407C113.735 78.7059 112.059 80.382 109.994 80.382H17.7088C15.6436 80.382 13.9675 78.7059 13.9675 76.6407V13.2257C13.9675 11.1605 15.6436 9.48441 17.7088 9.48441H109.994C112.059 9.48441 113.735 11.1605 113.735 13.2257Z" fill="#2626BC"/>
<path d="M77.996 103.754H49.7065L55.3639 81.3303H72.3386L77.996 103.754Z" fill="white"/>
<path d="M113.735 18.4643V81.8793C113.735 83.9445 112.059 85.6206 109.994 85.6206H17.7088C15.6436 85.6206 13.9675 83.9445 13.9675 81.8793V18.4643C13.9675 16.3991 15.6436 14.723 17.7088 14.723H109.994C112.059 14.723 113.735 16.3991 113.735 18.4643Z" fill="white"/>
<path d="M98.5994 26.7378C98.5994 45.9287 83.0421 61.486 63.8512 61.486C44.6603 61.486 29.103 45.9287 29.103 26.7378H98.5994Z" fill="white"/>
<path d="M56.0852 73.0516C56.0852 68.7626 59.5621 65.2854 63.8514 65.2854C68.1407 65.2854 71.6176 68.7623 71.6176 73.0516H56.0852Z" fill="#6583FE"/>
<path d="M113.735 26.7378V18.4643C113.735 16.3981 112.06 14.723 109.994 14.723H17.7088C15.6426 14.723 13.9675 16.3981 13.9675 18.4643V26.7378H113.735Z" fill="white"/>
<path d="M13.9675 73.0515V81.8785C13.9675 83.9447 15.6426 85.6198 17.7088 85.6198H109.994C112.06 85.6198 113.735 83.9447 113.735 81.8785V73.0515H13.9675Z" fill="white"/>
<path d="M63.8518 52.004C52.2276 52.004 42.8043 61.4273 42.8043 73.0516H34.8425C34.8425 57.0301 47.8303 44.0423 63.8518 44.0423V52.004Z" fill="#6583FE"/>
<path d="M85.5159 53.7639L79.874 59.4058C76.018 54.8763 70.2689 52.003 63.8513 52.003V44.0415C72.4663 44.0415 80.2058 47.7978 85.5159 53.7639Z" fill="#6583FE"/>
<path d="M63.8514 44.0415V52.003C57.4338 52.003 51.6847 54.8763 47.8286 59.4058L42.1868 53.7639C47.4969 47.7978 55.2364 44.0415 63.8514 44.0415Z" fill="white"/>
<path d="M84.8993 73.0516C84.8993 61.4273 75.476 52.004 63.8518 52.004C52.2276 52.004 42.8043 61.4273 42.8043 73.0516H34.8425C34.8425 57.0301 47.8303 44.0423 63.8518 44.0423C79.8733 44.0423 92.8611 57.0301 92.8611 73.0516H84.8993Z" stroke="#2626BC" stroke-width="2.4942" stroke-miterlimit="10"/>
<path d="M71.1842 60.6908L71.1498 60.6674L71.5488 60.0812C71.9364 59.5118 71.7893 58.7361 71.2201 58.3485C70.6507 57.9612 69.8752 58.1081 69.4874 58.6773L69.0883 59.2634L69.0539 59.2399C68.4845 58.8528 67.709 58.9998 67.3212 59.5687C66.9336 60.1381 67.0807 60.9138 67.6499 61.3014L67.6843 61.3248L62.8209 68.4665C62.4333 69.0359 62.5805 69.8116 63.1496 70.1992C63.3646 70.3454 63.6088 70.4157 63.8505 70.4157C64.2493 70.4157 64.6409 70.2249 64.8823 69.8705L69.7458 62.7288L69.7802 62.7523C69.9952 62.8984 70.2394 62.9688 70.4811 62.9688C70.8799 62.9688 71.2715 62.778 71.5129 62.4235C71.9008 61.8541 71.7534 61.0784 71.1842 60.6908Z" fill="#2626BC"/>
<path d="M40.1466 34.2416H23.5388C22.8332 34.2416 22.261 33.6694 22.261 32.9638C22.261 32.2582 22.8329 31.686 23.5388 31.686H40.1466C40.8522 31.686 41.4244 32.2582 41.4244 32.9638C41.4242 33.6694 40.8522 34.2416 40.1466 34.2416Z" fill="#2626BC"/>
<path d="M35.6573 38.9806H28.0285C27.3229 38.9806 26.7507 38.4084 26.7507 37.7028C26.7507 36.9972 27.3227 36.425 28.0285 36.425H35.6573C36.3629 36.425 36.935 36.9972 36.935 37.7028C36.9348 38.4084 36.3629 38.9806 35.6573 38.9806Z" fill="#2626BC"/>
<path d="M104.164 34.2416H87.5566C86.851 34.2416 86.2788 33.6694 86.2788 32.9638C86.2788 32.2582 86.8507 31.6861 87.5566 31.6861H104.164C104.87 31.6861 105.442 32.2582 105.442 32.9638C105.442 33.6694 104.87 34.2416 104.164 34.2416Z" fill="#2626BC"/>
<path d="M99.6748 38.9806H92.0461C91.3405 38.9806 90.7683 38.4084 90.7683 37.7028C90.7683 36.9972 91.3402 36.425 92.0461 36.425H99.6748C100.38 36.425 100.953 36.9972 100.953 37.7028C100.953 38.4084 100.381 38.9806 99.6748 38.9806Z" fill="#2626BC"/>
<path d="M33.55 51.4518H30.1347C29.7214 51.4518 29.3865 51.1169 29.3865 50.7036V44.5928C29.3865 44.1795 29.7214 43.8445 30.1347 43.8445H33.55C33.9633 43.8445 34.2983 44.1795 34.2983 44.5928V50.7036C34.2983 51.1169 33.9633 51.4518 33.55 51.4518Z" fill="#6583FE"/>
<path d="M97.5681 51.4518H94.1528C93.7395 51.4518 93.4045 51.1169 93.4045 50.7036V44.5928C93.4045 44.1795 93.7395 43.8445 94.1528 43.8445H97.5681C97.9814 43.8445 98.3164 44.1795 98.3164 44.5928V50.7036C98.3164 51.1169 97.9814 51.4518 97.5681 51.4518Z" fill="#6583FE"/>
<path d="M68.0691 39.097C68.8391 39.097 69.4633 38.4728 69.4633 37.7028C69.4633 36.9328 68.8391 36.3085 68.0691 36.3085C67.299 36.3085 66.6748 36.9328 66.6748 37.7028C66.6748 38.4728 67.299 39.097 68.0691 39.097Z" fill="#2626BC"/>
<path d="M63.8515 39.097C64.6216 39.097 65.2458 38.4728 65.2458 37.7028C65.2458 36.9328 64.6216 36.3085 63.8515 36.3085C63.0815 36.3085 62.4573 36.9328 62.4573 37.7028C62.4573 38.4728 63.0815 39.097 63.8515 39.097Z" fill="#2626BC"/>
<path d="M59.6338 39.097C60.4038 39.097 61.028 38.4728 61.028 37.7028C61.028 36.9328 60.4038 36.3085 59.6338 36.3085C58.8637 36.3085 58.2395 36.9328 58.2395 37.7028C58.2395 38.4728 58.8637 39.097 59.6338 39.097Z" fill="#2626BC"/>
<path d="M31.0338 101.963C30.7145 101.963 30.3955 101.842 30.1518 101.598L27.4037 98.85C27.1698 98.6161 27.0386 98.299 27.0386 97.9681C27.0386 97.6371 27.17 97.3201 27.4037 97.0861L30.1518 94.338C30.6389 93.8511 31.4284 93.8511 31.9155 94.338L34.6636 97.0861C34.8975 97.3201 35.0287 97.6371 35.0287 97.9681C35.0287 98.299 34.8973 98.6161 34.6636 98.85L31.9155 101.598C31.672 101.842 31.353 101.963 31.0338 101.963ZM30.0493 97.9681L31.0338 98.9525L32.0182 97.9681L31.0338 96.9836L30.0493 97.9681Z" fill="#6583FE"/>
<path d="M86.0841 10.9762C85.3954 10.9762 84.837 10.4178 84.837 9.72914C84.837 8.90156 84.1635 8.22813 83.336 8.22813C82.6473 8.22813 82.0889 7.66968 82.0889 6.98103C82.0889 6.29238 82.6473 5.73393 83.336 5.73393C84.1635 5.73393 84.837 5.0605 84.837 4.23292C84.837 3.54428 85.3954 2.98582 86.0841 2.98582C86.7727 2.98582 87.3312 3.54428 87.3312 4.23292C87.3312 5.0605 88.0046 5.73393 88.8322 5.73393C89.5208 5.73393 90.0793 6.29238 90.0793 6.98103C90.0793 7.66968 89.5208 8.22813 88.8322 8.22813C88.0046 8.22813 87.3312 8.90156 87.3312 9.72914C87.3312 10.4178 86.7727 10.9762 86.0841 10.9762Z" fill="#6583FE"/>
<path d="M90.2899 98.0177C89.6012 98.0177 89.0428 97.4593 89.0428 96.7706C89.0428 95.943 88.3694 95.2696 87.5418 95.2696C86.8531 95.2696 86.2947 94.7112 86.2947 94.0225C86.2947 93.3339 86.8531 92.7754 87.5418 92.7754C88.3694 92.7754 89.0428 92.102 89.0428 91.2744C89.0428 90.5858 89.6012 90.0273 90.2899 90.0273C90.9785 90.0273 91.537 90.5858 91.537 91.2744C91.537 92.102 92.2104 92.7754 93.038 92.7754C93.7266 92.7754 94.2851 93.3339 94.2851 94.0225C94.2851 94.7112 93.7266 95.2696 93.038 95.2696C92.2104 95.2696 91.537 95.943 91.537 96.7706C91.537 97.4593 90.9785 98.0177 90.2899 98.0177Z" fill="#6583FE"/>
<path d="M100.386 7.99016C100.067 7.99016 99.7475 7.86845 99.5038 7.62501L96.7557 4.87691C96.2686 4.38979 96.2686 3.60013 96.7557 3.11326L99.5038 0.365151C99.9909 -0.121717 100.78 -0.121717 101.267 0.365151L104.016 3.11326C104.503 3.60037 104.503 4.39004 104.016 4.87691L101.267 7.62501C101.024 7.86845 100.705 7.99016 100.386 7.99016ZM99.4013 3.99496L100.386 4.97942L101.37 3.99496L100.386 3.0105L99.4013 3.99496Z" fill="#6583FE"/>
<path d="M23.4661 19.4653C22.7774 19.4653 22.219 20.0237 22.219 20.7124V20.7488C22.219 21.4374 22.7774 21.9959 23.4661 21.9959C24.1547 21.9959 24.7132 21.4374 24.7132 20.7488V20.7124C24.7132 20.0235 24.1547 19.4653 23.4661 19.4653Z" fill="#2626BC"/>
<path d="M28.2862 19.4653C27.5975 19.4653 27.0391 20.0237 27.0391 20.7124V20.7488C27.0391 21.4374 27.5975 21.9959 28.2862 21.9959C28.9748 21.9959 29.5333 21.4374 29.5333 20.7488V20.7124C29.5333 20.0235 28.9748 19.4653 28.2862 19.4653Z" fill="#2626BC"/>
<path d="M33.1055 19.4653C32.4168 19.4653 31.8584 20.0237 31.8584 20.7124V20.7488C31.8584 21.4374 32.4168 21.9959 33.1055 21.9959C33.7941 21.9959 34.3526 21.4374 34.3526 20.7488V20.7124C34.3526 20.0235 33.7944 19.4653 33.1055 19.4653Z" fill="#2626BC"/>
<path d="M109.994 13.4757H17.7086C14.958 13.4757 12.7202 15.7135 12.7202 18.4641V81.8785C12.7202 84.6291 14.958 86.8669 17.7086 86.8669H52.6808L48.7352 102.506H44.9118C44.2232 102.506 43.6647 103.064 43.6647 103.753C43.6647 104.442 44.2232 105 44.9118 105H82.7907C83.4794 105 84.0378 104.442 84.0378 103.753C84.0378 103.064 83.4794 102.506 82.7907 102.506H78.9669L75.0215 86.8669H109.994C112.745 86.8669 114.982 84.6291 114.982 81.8785V73.0516C114.982 72.3629 114.424 71.8045 113.735 71.8045C113.712 71.8045 113.69 71.8102 113.666 71.8115C113.643 71.8102 113.621 71.8045 113.598 71.8045H15.2144V27.9849H112.488V66.1826C112.488 66.8712 113.047 67.4297 113.735 67.4297C114.424 67.4297 114.982 66.8712 114.982 66.1826V18.4641C114.982 15.7137 112.745 13.4757 109.994 13.4757ZM76.3946 102.506H51.3075L55.253 86.8669H72.449L76.3946 102.506ZM112.488 74.2987V81.8785C112.488 83.2538 111.369 84.3727 109.994 84.3727H17.7086C16.3333 84.3727 15.2144 83.2538 15.2144 81.8785V74.2987H112.488ZM15.2144 25.4907V18.4641C15.2144 17.0888 16.3333 15.9699 17.7086 15.9699H109.994C111.369 15.9699 112.488 17.0888 112.488 18.4641V25.4905H15.2144V25.4907Z" fill="#2626BC"/>
<defs>
<linearGradient id="paint0_linear" x1="-4.98043" y1="53.3185" x2="132.101" y2="52.0946" gradientUnits="userSpaceOnUse">
<stop stop-color="#D2DEFF" stop-opacity="0"/>
<stop offset="1" stop-color="#B7C5FF"/>
</linearGradient>
</defs>
</svg>
