<svg width="130" height="130" viewBox="0 0 130 130" fill="none" xmlns="http://www.w3.org/2000/svg">
<g clip-path="url(#clip0)">
<path d="M103.652 39.1681C97.6351 36.823 92.5519 32.5439 89.4431 26.8838C84.2151 17.3656 74.0995 10.9136 62.4729 10.9136C50.4047 10.9136 39.9651 17.8648 34.9299 27.981C31.846 34.1765 26.5982 39.0411 20.1805 41.6312C10.6973 45.4586 2.73636 54.2057 0.209992 67.8805C-0.067274 69.3811 -0.0713365 70.9239 0.205929 72.4244C4.12827 93.6439 21.1276 103.004 36.5993 100.522C45.2641 99.1318 54.0356 102.022 60.4581 108.002C73.5175 120.162 94.4521 123.975 114.775 110.94C117.155 109.413 120.35 106.209 121.875 103.827C139.386 76.4887 126.415 48.0401 103.652 39.1681Z" fill="url(#paint0_linear)"/>
<path opacity="0.1" d="M115.781 26.3476V90.9032C115.781 93.0056 114.075 94.7118 111.973 94.7118H18.0273C15.925 94.7118 14.2188 93.0056 14.2188 90.9032V26.3476C14.2188 24.2452 15.925 22.539 18.0273 22.539H111.973C114.075 22.539 115.781 24.2452 115.781 26.3476Z" fill="#2626BC"/>
<path d="M79.3994 118.505H50.6011L56.3602 95.6772H73.6403L79.3994 118.505Z" fill="white"/>
<path d="M115.781 31.6804V96.236C115.781 98.3384 114.075 100.045 111.973 100.045H18.0273C15.925 100.045 14.2188 98.3384 14.2188 96.236V31.6804C14.2188 29.578 15.925 27.8718 18.0273 27.8718H111.973C114.075 27.8718 115.781 29.578 115.781 31.6804Z" fill="white"/>
<path d="M108.672 87.2495H54.3359V48.1642C54.3359 47.7435 54.6769 47.4025 55.0977 47.4025H107.91C108.331 47.4025 108.672 47.7435 108.672 48.1642V87.2495Z" fill="white"/>
<path d="M108.672 52.7619H54.3359V48.1644C54.3359 47.7437 54.6769 47.4027 55.0977 47.4027H107.91C108.331 47.4027 108.672 47.7437 108.672 48.1644V52.7619Z" fill="#6583FE"/>
<path d="M108.672 87.2495H54.3359V48.1642C54.3359 47.7435 54.6769 47.4025 55.0977 47.4025H107.91C108.331 47.4025 108.672 47.7435 108.672 48.1642V87.2495Z" stroke="#2626BC" stroke-width="2.53906" stroke-miterlimit="10"/>
<path d="M115.781 40.1027V31.6804C115.781 29.577 114.076 27.8718 111.973 27.8718H18.0273C15.924 27.8718 14.2188 29.577 14.2188 31.6804V40.1027H115.781Z" fill="white"/>
<path d="M14.2188 87.2495V96.2353C14.2188 98.3386 15.924 100.044 18.0273 100.044H111.973C114.076 100.044 115.781 98.3386 115.781 96.2353V87.2495H14.2188Z" fill="white"/>
<path d="M23.8882 32.6993C23.1871 32.6993 22.6187 33.2675 22.6187 33.9688V34.0056C22.6187 34.7069 23.1871 35.2751 23.8882 35.2751C24.5892 35.2751 25.1577 34.7069 25.1577 34.0056V33.9688C25.1577 33.2675 24.5892 32.6993 23.8882 32.6993Z" fill="#2626BC"/>
<path d="M28.7949 32.6993C28.0939 32.6993 27.5254 33.2675 27.5254 33.9688V34.0056C27.5254 34.7069 28.0939 35.2751 28.7949 35.2751C29.496 35.2751 30.0645 34.7069 30.0645 34.0056V33.9688C30.0645 33.2675 29.496 32.6993 28.7949 32.6993Z" fill="#2626BC"/>
<path d="M33.7017 32.6993C33.0006 32.6993 32.4321 33.2675 32.4321 33.9688V34.0056C32.4321 34.7069 33.0006 35.2751 33.7017 35.2751C34.4027 35.2751 34.9712 34.7069 34.9712 34.0056V33.9688C34.9712 33.2675 34.4029 32.6993 33.7017 32.6993Z" fill="#2626BC"/>
<path d="M111.973 26.602H18.0273C15.2273 26.602 12.9492 28.88 12.9492 31.6801V40.1027C12.9492 40.804 13.5177 41.3722 14.2188 41.3722H114.512V85.98H15.4883V47.0953C15.4883 46.394 14.9198 45.8257 14.2188 45.8257C13.5177 45.8257 12.9492 46.394 12.9492 47.0953V96.235C12.9492 99.0351 15.2273 101.313 18.0273 101.313H53.6286L49.6118 117.233H45.7199C45.0188 117.233 44.4504 117.802 44.4504 118.503C44.4504 119.204 45.0188 119.772 45.7199 119.772H50.6007C51.1824 119.772 51.6895 119.377 51.8317 118.814L56.2471 101.313H73.7524L77.7687 117.233L57.5933 117.235C56.8923 117.235 56.3238 117.803 56.3238 118.504C56.3238 119.206 56.8923 119.774 57.5933 119.774L84.2799 119.772C84.9809 119.772 85.5494 119.204 85.5494 118.503C85.5494 117.802 84.9809 117.233 84.2799 117.233H80.3872L76.3709 101.313H111.973C114.773 101.313 117.051 99.0351 117.051 96.235V31.6801C117.051 28.88 114.773 26.602 111.973 26.602ZM15.4883 38.8331V31.6801C15.4883 30.2801 16.6273 29.141 18.0273 29.141H111.973C113.373 29.141 114.512 30.2801 114.512 31.6801V38.8331H15.4883ZM111.973 98.7743H18.0273C16.6273 98.7743 15.4883 97.6353 15.4883 96.2353V88.519H114.512V96.2353C114.512 97.635 113.373 98.7743 111.973 98.7743Z" fill="#2626BC"/>
<path d="M46.374 59.0906C47.2746 53.5346 43.5007 48.3004 37.9447 47.3997C32.3887 46.499 27.1545 50.2729 26.2539 55.8289C25.3532 61.385 29.1271 66.6191 34.6831 67.5198C40.2391 68.4205 45.4733 64.6466 46.374 59.0906Z" fill="#6583FE"/>
<path d="M40.5437 55.9926C40.5437 53.6669 38.6513 51.7747 36.3256 51.7747C33.9998 51.7747 32.1074 53.6669 32.1074 55.9926C32.1074 57.1398 32.569 58.18 33.3147 58.9413C32.5693 59.7025 32.1074 60.743 32.1074 61.8899C32.1074 62.5912 32.6759 63.1594 33.377 63.1594C34.078 63.1594 34.6465 62.5912 34.6465 61.8899C34.6465 60.9641 35.3996 60.2108 36.3256 60.2108C37.2516 60.2108 38.0046 60.9641 38.0046 61.8899C38.0046 62.5912 38.5731 63.1594 39.2742 63.1594C39.9752 63.1594 40.5437 62.5912 40.5437 61.8899C40.5437 60.7427 40.0821 59.7025 39.3364 58.9413C40.0821 58.1803 40.5437 57.1398 40.5437 55.9926ZM36.3256 54.3138C37.2513 54.3138 38.0046 55.0669 38.0046 55.9926C38.0046 56.9184 37.2513 57.6717 36.3256 57.6717C35.3998 57.6717 34.6465 56.9184 34.6465 55.9926C34.6465 55.0669 35.3996 54.3138 36.3256 54.3138Z" fill="#2626BC"/>
<path d="M97.8369 65.0787h45.1709C63.1833 65.0787 61.5723 63.4674 61.5723 61.4801C61.5723 59.4925 63.1836 57.8815 65.1709 57.8815H97.8369C99.8245 57.8815 101.436 59.4927 101.436 61.4801C101.436 63.4674 99.8243 65.0787 97.8369 65.0787Z" fill="#6583FE"/>
<path d="M77.2104 62.9543C77.9942 62.9543 78.6297 62.3188 78.6297 61.5349C78.6297 60.7511 77.9942 60.1156 77.2104 60.1156C76.4265 60.1156 75.791 60.7511 75.791 61.5349C75.791 62.3188 76.4265 62.9543 77.2104 62.9543Z" fill="#2626BC"/>
<path d="M81.5043 62.9543C82.2882 62.9543 82.9236 62.3188 82.9236 61.5349C82.9236 60.7511 82.2882 60.1156 81.5043 60.1156C80.7204 60.1156 80.085 60.7511 80.085 61.5349C80.085 62.3188 80.7204 62.9543 81.5043 62.9543Z" fill="#2626BC"/>
<path d="M85.7978 60.1156C86.5816 60.1156 87.2171 60.7511 87.2171 61.5349C87.2171 62.3188 86.5816 62.9543 85.7978 62.9543C85.0139 62.9543 84.3784 62.3188 84.3784 61.5349C84.3784 60.7511 85.0137 60.1156 85.7978 60.1156Z" fill="#2626BC"/>
<path d="M97.8369 75.108h45.1709C63.1833 75.108 61.5723 73.4967 61.5723 71.5094C61.5723 69.5218 63.1836 67.9108 65.1709 67.9108H97.8369C99.8245 67.9108 101.436 69.522 101.436 71.5094C101.436 73.4967 99.8243 75.108 97.8369 75.108Z" fill="#6583FE"/>
<path d="M77.2104 72.9836C77.9942 72.9836 78.6297 72.3481 78.6297 71.5642C78.6297 70.7804 77.9942 70.1449 77.2104 70.1449C76.4265 70.1449 75.791 70.7804 75.791 71.5642C75.791 72.3481 76.4265 72.9836 77.2104 72.9836Z" fill="#2626BC"/>
<path d="M81.5043 72.9836C82.2882 72.9836 82.9236 72.3481 82.9236 71.5642C82.9236 70.7804 82.2882 70.1449 81.5043 70.1449C80.7204 70.1449 80.085 70.7804 80.085 71.5642C80.085 72.3481 80.7204 72.9836 81.5043 72.9836Z" fill="#2626BC"/>
<path d="M85.7978 70.1449C86.5816 70.1449 87.2171 70.7804 87.2171 71.5642C87.2171 72.3481 86.5816 72.9836 85.7978 72.9836C85.0139 72.9836 84.3784 72.3481 84.3784 71.5642C84.3784 70.7804 85.0137 70.1449 85.7978 70.1449Z" fill="#2626BC"/>
<path d="M86.5554 82.682H76.5073C76.0866 82.682 75.7456 82.341 75.7456 81.9203V79.0004C75.7456 78.5797 76.0866 78.2387 76.5073 78.2387H86.5554C86.9761 78.2387 87.3171 78.5797 87.3171 79.0004V81.9203C87.3171 82.341 86.9761 82.682 86.5554 82.682Z" fill="#6583FE"/>
<path d="M44.7791 74.1655H27.8725C27.1542 74.1655 26.5718 73.5831 26.5718 72.8648C26.5718 72.1465 27.154 71.564 27.8725 71.564H44.7791C45.4974 71.564 46.0799 72.1465 46.0799 72.8648C46.0799 73.5831 45.4974 74.1655 44.7791 74.1655Z" fill="#2626BC"/>
<path d="M40.2088 78.9897H32.4429C31.7246 78.9897 31.1421 78.4073 31.1421 77.689C31.1421 76.9707 31.7243 76.3882 32.4429 76.3882H40.2088C40.9271 76.3882 41.5096 76.9707 41.5096 77.689C41.5096 78.4073 40.9271 78.9897 40.2088 78.9897Z" fill="#2626BC"/>
<path d="M95.0148 115.115C94.6898 115.115 94.365 114.991 94.117 114.743L91.3255 111.952C90.8296 111.456 90.8296 110.652 91.3255 110.156L94.117 107.365C94.6128 106.869 95.4165 106.869 95.9123 107.365L98.7038 110.156C99.1997 110.652 99.1997 111.456 98.7038 111.952L95.9123 114.743C95.6645 114.991 95.3398 115.115 95.0148 115.115ZM94.0187 111.054L95.0148 112.05L96.0109 111.054L95.0148 110.058L94.0187 111.054Z" fill="#6583FE"/>
<path d="M33.3771 24.2325C33.0521 24.2325 32.7273 24.1086 32.4793 23.8605L29.6878 21.0691C29.1919 20.5735 29.1919 19.7696 29.6878 19.274L32.4793 16.4825C32.9752 15.9866 33.7788 15.9866 34.2746 16.4825L37.0661 19.274C37.562 19.7696 37.562 20.5735 37.0661 21.0691L34.2746 23.8605C34.0268 24.1086 33.7021 24.2325 33.3771 24.2325ZM32.381 20.1715L33.3771 21.1676L34.3732 20.1715L33.3771 19.1754L32.381 20.1715Z" fill="#6583FE"/>
<path d="M46.0792 18.348C45.7542 18.348 45.4295 18.2241 45.1814 17.976L42.39 15.1846C41.8941 14.689 41.8941 13.8851 42.39 13.3895L45.1814 10.598C45.6773 10.1022 46.4809 10.1022 46.9768 10.598L49.7682 13.3895C50.2641 13.8851 50.2641 14.689 49.7682 15.1846L46.9768 17.976C46.7292 18.2239 46.4042 18.348 46.0792 18.348ZM45.0834 14.287L46.0795 15.2831L47.0756 14.287L46.0795 13.291L45.0834 14.287Z" fill="#6583FE"/>
<path d="M104.233 19.745C103.532 19.745 102.964 19.1768 102.964 18.4755C102.964 17.633 102.278 16.9475 101.436 16.9475C100.735 16.9475 100.166 16.3792 100.166 15.6779C100.166 14.9766 100.735 14.4084 101.436 14.4084C102.278 14.4084 102.964 13.7231 102.964 12.8804C102.964 12.1791 103.532 11.6109 104.233 11.6109C104.934 11.6109 105.503 12.1791 105.503 12.8804C105.503 13.7228 106.188 14.4084 107.031 14.4084C107.732 14.4084 108.3 14.9766 108.3 15.6779C108.3 16.3792 107.732 16.9475 107.031 16.9475C106.188 16.9475 105.503 17.6328 105.503 18.4755C105.503 19.1765 104.934 19.745 104.233 19.745Z" fill="#6583FE"/>
</g>
<defs>
<linearGradient id="paint0_linear" x1="7.35923" y1="31.6245" x2="127.593" y2="105.136" gradientUnits="userSpaceOnUse">
<stop stop-color="#D2DEFF" stop-opacity="0"/>
<stop offset="1" stop-color="#B7C5FF"/>
</linearGradient>
<clipPath id="clip0">
<rect width="130" height="130" fill="white"/>
</clipPath>
</defs>
</svg>
