<svg width="128" height="128" viewBox="0 0 128 128" fill="none" xmlns="http://www.w3.org/2000/svg">
<g clip-path="url(#clip0)">
<path d="M102.057 38.5655C96.133 36.2565 91.128 32.0432 88.067 26.4702C82.9195 17.0985 72.9595 10.7457 61.5118 10.7457C49.6293 10.7457 39.3503 17.59 34.3925 27.5505C31.356 33.6507 26.189 38.4405 19.87 40.9907C10.5328 44.7592 2.69426 53.3717 0.206761 66.8362C-0.066239 68.3137 -0.070239 69.8327 0.202761 71.3102C4.06476 92.2032 20.8025 101.419 36.0363 98.9752C44.5678 97.6067 53.2043 100.452 59.528 106.341C72.3865 118.314 92.999 122.067 113.009 109.233C115.353 107.73 118.498 104.575 120 102.229C137.242 75.312 124.47 47.301 102.057 38.5655Z" fill="url(#paint0_linear)"/>
<path opacity="0.1" d="M114 25.1452V88.7077C114 90.7777 112.32 92.4577 110.25 92.4577H17.7505C15.6805 92.4577 14.0005 90.7777 14.0005 88.7077V25.1452C14.0005 23.0752 15.6805 21.3952 17.7505 21.3952H110.25C112.32 21.3952 114 23.0752 114 25.1452Z" fill="#2626BC"/>
<path d="M78.178 115.877H49.8228L53.5183 101.227L55.4933 93.401H72.5075L74.4825 101.227L78.178 115.877Z" fill="white"/>
<path d="M114 30.388V93.9505C114 96.0205 112.32 97.7005 110.25 97.7005H17.7505C15.6805 97.7005 14.0005 96.0205 14.0005 93.9505V30.388C14.0005 28.318 15.6805 26.638 17.7505 26.638H110.25C112.32 26.638 114 28.318 114 30.388Z" fill="white"/>
<path d="M114 65.1531V93.9506C114 96.0216 112.321 97.7006 110.25 97.7006h49.0549V65.9031C69.0549 65.4888 69.3907 65.1531 69.8049 65.1531H114Z" fill="white"/>
<path d="M114 38.6815V30.3888C114 28.3178 112.321 26.6388 110.25 26.6388H17.7505C15.6795 26.6388 14.0005 28.3178 14.0005 30.3888V38.6815H114Z" fill="white"/>
<path d="M14.0005 85.103V93.9505C14.0005 96.0215 15.6795 97.7005 17.7505 97.7005H110.25C112.321 97.7005 114 96.0215 114 93.9505V85.103H14.0005Z" fill="white"/>
<path d="M23.5205 33.9283C24.2108 33.9283 24.7705 33.3686 24.7705 32.6783V32.6421C24.7705 31.9518 24.2108 31.3921 23.5205 31.3921C22.8303 31.3921 22.2705 31.9518 22.2705 32.6421V32.6783C22.2705 33.3686 22.8303 33.9283 23.5205 33.9283Z" fill="#2626BC"/>
<path d="M28.3521 33.9283C29.0423 33.9283 29.6021 33.3686 29.6021 32.6783V32.6421C29.6021 31.9518 29.0423 31.3921 28.3521 31.3921C27.6618 31.3921 27.1021 31.9518 27.1021 32.6421V32.6783C27.1021 33.3686 27.6618 33.9283 28.3521 33.9283Z" fill="#2626BC"/>
<path d="M33.1829 33.9283C33.8731 33.9283 34.4329 33.3686 34.4329 32.6783V32.6421C34.4329 31.9518 33.8731 31.3921 33.1829 31.3921C32.4926 31.3921 31.9329 31.9518 31.9329 32.6421V32.6783C31.9329 33.3686 32.4926 33.9283 33.1829 33.9283Z" fill="#2626BC"/>
<path d="M15.2505 39.9315H114C114.69 39.9315 115.25 39.3718 115.25 38.6815V30.3888C115.25 27.6318 113.007 25.3888 110.25 25.3888H17.7505C14.9935 25.3888 12.7505 27.6318 12.7505 30.3888V93.9505C12.7505 96.7075 14.9935 98.9505 17.7505 98.9505H72.619L76.5745 114.626H51.4265L54.028 104.316C54.1967 103.647 53.7912 102.967 53.1217 102.798C52.4527 102.629 51.7727 103.035 51.604 103.705L48.8482 114.626H45.017C44.3267 114.626 43.767 115.186 43.767 115.876C43.767 116.566 44.3267 117.126 45.017 117.126H49.822H78.1792H82.9842C83.6745 117.126 84.2342 116.566 84.2342 115.876C84.2342 115.186 83.6745 114.626 82.9842 114.626H79.153L75.1975 98.9505H110.25C113.007 98.9505 115.25 96.7075 115.25 93.9505V45.5668C115.25 44.8765 114.691 44.3168 114 44.3168C113.31 44.3168 112.75 44.8765 112.75 45.5668V83.8533H15.2505V39.9315ZM17.7505 27.8888H110.25C111.629 27.8888 112.75 29.0103 112.75 30.3888V37.4315H15.2505V30.3888C15.2505 29.0103 16.372 27.8888 17.7505 27.8888ZM112.75 86.353V93.9505C112.75 95.329 111.629 96.4505 110.25 96.4505H17.7505C16.372 96.4505 15.2505 95.329 15.2505 93.9505V86.353H112.75Z" fill="#2626BC"/>
<path d="M58.958 78.1635H24.7725C24.081 78.1635 23.5205 77.603 23.5205 76.9115C23.5205 76.22 24.081 75.6595 24.7725 75.6595H58.958C59.6495 75.6595 60.21 76.22 60.21 76.9115C60.2103 77.603 59.6498 78.1635 58.958 78.1635Z" fill="#2626BC"/>
<path d="M58.958 73.3885H24.7725C24.081 73.3885 23.5205 72.828 23.5205 72.1365C23.5205 71.445 24.081 70.8845 24.7725 70.8845H58.958C59.6495 70.8845 60.21 71.445 60.21 72.1365C60.2103 72.828 59.6498 73.3885 58.958 73.3885Z" fill="#2626BC"/>
<path d="M30.458 68.6135H24.7725C24.081 68.6135 23.5205 68.053 23.5205 67.3615C23.5205 66.67 24.081 66.1095 24.7725 66.1095H30.458C31.1495 66.1095 31.71 66.67 31.71 67.3615C31.71 68.053 31.1498 68.6135 30.458 68.6135Z" fill="#2626BC"/>
<path d="M58.958 68.6135H36.0225C35.331 68.6135 34.7705 68.053 34.7705 67.3615C34.7705 66.67 35.331 66.1095 36.0225 66.1095H58.958C59.6495 66.1095 60.21 66.67 60.21 67.3615C60.21 68.053 59.6498 68.6135 58.958 68.6135Z" fill="#2626BC"/>
<path d="M36.458 60.3723H24.7725C24.081 60.3723 23.5205 59.8118 23.5205 59.1203C23.5205 58.4288 24.081 57.8683 24.7725 57.8683H36.458C37.1495 57.8683 37.71 58.4288 37.71 59.1203C37.7103 59.8116 37.1498 60.3723 36.458 60.3723Z" fill="#2626BC"/>
<path d="M79.2322 78.0115H75.2322C74.8179 78.0115 74.4822 77.6758 74.4822 77.2615V62.045C74.4822 61.6308 74.8179 61.295 75.2322 61.295H79.2322C79.6464 61.295 79.9822 61.6308 79.9822 62.045V77.2615C79.9822 77.6758 79.6464 78.0115 79.2322 78.0115Z" fill="#6583FE"/>
<path d="M71.0542 78.0115h47.0542C66.6399 78.0115 66.3042 77.6758 66.3042 77.2615V67.8473C66.3042 67.433 66.6399 67.0973 67.0542 67.0973H71.0542C71.4684 67.0973 71.8042 67.433 71.8042 67.8473V77.2615C71.8042 77.6758 71.4684 78.0115 71.0542 78.0115Z" fill="#6583FE"/>
<path d="M87.4104 78.0115H83.4104C82.9962 78.0115 82.6604 77.6757 82.6604 77.2615V57.6765C82.6604 57.2622 82.9962 56.9265 83.4104 56.9265H87.4104C87.8247 56.9265 88.1604 57.2622 88.1604 57.6765V77.2615C88.1604 77.6757 87.8247 78.0115 87.4104 78.0115Z" fill="#6583FE"/>
<path d="M95.5881 78.0115H91.5881C91.1739 78.0115 90.8381 77.6758 90.8381 77.2615V53.045C90.8381 52.6308 91.1739 52.295 91.5881 52.295H95.5881C96.0024 52.295 96.3381 52.6308 96.3381 53.045V77.2615C96.3381 77.6758 96.0024 78.0115 95.5881 78.0115Z" fill="#6583FE"/>
<path d="M103.767 78.0115H99.7668C99.3526 78.0115 99.0168 77.6757 99.0168 77.2615V48.6765C99.0168 48.2622 99.3526 47.9265 99.7668 47.9265H103.767C104.181 47.9265 104.517 48.2622 104.517 48.6765V77.2615C104.517 77.6757 104.181 78.0115 103.767 78.0115Z" fill="#6583FE"/>
<path d="M29.4206 53.3698C28.9661 53.3698 28.5431 53.1218 28.3228 52.7173L27.5781 51.3483L26.8333 52.7173C26.5946 53.1555 26.1168 53.4105 25.6213 53.3645C25.1243 53.319 24.7021 52.9823 24.5471 52.5078L22.8321 47.2553C22.6178 46.599 22.9761 45.8933 23.6323 45.679C24.2883 45.4648 24.9941 45.823 25.2086 46.4793L26.0236 48.975L26.4806 48.1355C26.6993 47.7335 27.1206 47.483 27.5786 47.483C28.0366 47.483 28.4578 47.7333 28.6766 48.1355L29.1333 48.9748L29.9483 46.479C30.1626 45.8228 30.8683 45.464 31.5246 45.6788C32.1808 45.893 32.5393 46.5988 32.3248 47.255L30.6098 52.5075C30.4548 52.982 30.0326 53.3188 29.5356 53.3643C29.4966 53.368 29.4583 53.3698 29.4206 53.3698Z" fill="#2626BC"/>
<path d="M40.121 53.3697C39.6665 53.3697 39.2435 53.1217 39.0235 52.7172L38.2785 51.3482L37.5335 52.7172C37.295 53.1555 36.8183 53.4105 36.3215 53.3645C35.8245 53.319 35.4023 52.9822 35.2473 52.5077L33.5323 47.2552C33.318 46.599 33.6763 45.8932 34.3325 45.679C34.9888 45.4647 35.6945 45.823 35.9088 46.4792L36.7238 48.975L37.1808 48.1355C37.3995 47.7335 37.8208 47.483 38.2788 47.483C38.7368 47.483 39.158 47.7332 39.3768 48.1355L39.8335 48.9747L40.6485 46.479C40.8628 45.8227 41.5685 45.464 42.2248 45.6787C42.881 45.893 43.2395 46.5987 43.025 47.255L41.31 52.5075C41.155 52.982 40.7328 53.3187 40.2358 53.3642C40.1973 53.368 40.159 53.3697 40.121 53.3697Z" fill="#2626BC"/>
<path d="M50.8212 53.3697C50.3667 53.3697 49.9437 53.1217 49.7235 52.7172L48.9787 51.3482L48.234 52.7172C47.9952 53.1555 47.5182 53.4105 47.022 53.3645C46.525 53.319 46.1027 52.9822 45.9477 52.5077L44.2327 47.2552C44.0185 46.599 44.3767 45.8932 45.033 45.679C45.6892 45.4647 46.395 45.823 46.6092 46.4792L47.4242 48.975L47.8812 48.1355C48.1 47.7335 48.5212 47.483 48.9792 47.483C49.4372 47.483 49.8585 47.7332 50.0772 48.1355L50.534 48.9747L51.349 46.479C51.5632 45.8227 52.269 45.464 52.9252 45.6787C53.5815 45.893 53.94 46.5987 53.7255 47.255L52.0105 52.5075C51.8555 52.982 51.4332 53.3187 50.9362 53.3642C50.8975 53.368 50.8592 53.3697 50.8212 53.3697Z" fill="#2626BC"/>
<path d="M79.7105 45.676C80.4822 45.676 81.108 46.3018 81.108 47.0735C81.108 47.8453 80.4822 48.471 79.7105 48.471C78.9387 48.471 78.313 47.8453 78.313 47.0735C78.313 46.3018 78.9385 45.676 79.7105 45.676Z" fill="#2626BC"/>
<path d="M83.9375 45.676C84.7093 45.676 85.335 46.3018 85.335 47.0735C85.335 47.8453 84.7093 48.471 83.9375 48.471C83.1658 48.471 82.54 47.8453 82.54 47.0735C82.54 46.3018 83.1655 45.676 83.9375 45.676Z" fill="#2626BC"/>
<path d="M88.1653 45.676C88.9371 45.676 89.5628 46.3018 89.5628 47.0735C89.5628 47.8453 88.9371 48.471 88.1653 48.471C87.3936 48.471 86.7678 47.8453 86.7678 47.0735C86.7678 46.3018 87.3933 45.676 88.1653 45.676Z" fill="#2626BC"/>
<path d="M73.2875 49.7705C73.2875 47.4802 71.4242 45.6172 69.1342 45.6172C66.8442 45.6172 64.981 47.4805 64.981 49.7705C64.981 50.9 65.4355 51.9242 66.1697 52.6737C65.4357 53.4232 64.981 54.4475 64.981 55.577C64.981 56.2672 65.5407 56.827 66.231 56.827C66.9212 56.827 67.481 56.2672 67.481 55.577C67.481 54.6655 68.2227 53.9237 69.1342 53.9237C70.0457 53.9237 70.7875 54.6655 70.7875 55.577C70.7875 56.2672 71.3472 56.827 72.0375 56.827C72.7277 56.827 73.2875 56.2672 73.2875 55.577C73.2875 54.4475 72.833 53.4232 72.0987 52.6737C72.833 51.9242 73.2875 50.8997 73.2875 49.7705ZM69.1342 48.117C70.0457 48.117 70.7875 48.8587 70.7875 49.7702C70.7875 50.6817 70.0457 51.4235 69.1342 51.4235C68.2227 51.4235 67.481 50.6817 67.481 49.7702C67.481 48.8587 68.2225 48.117 69.1342 48.117Z" fill="#2626BC"/>
<path d="M33.5162 112.333C33.1962 112.333 32.8765 112.211 32.6322 111.967L29.8777 109.213C29.6432 108.978 29.5117 108.66 29.5117 108.329C29.5117 107.997 29.6435 107.679 29.8777 107.445L32.6322 104.69C33.1205 104.202 33.9117 104.202 34.4 104.69L37.1545 107.445C37.389 107.679 37.5205 107.997 37.5205 108.329C37.5205 108.66 37.3887 108.978 37.1545 109.213L34.4002 111.967C34.156 112.211 33.8362 112.333 33.5162 112.333ZM32.5295 108.328L33.5162 109.315L34.503 108.328L33.5162 107.342L32.5295 108.328Z" fill="#6583FE"/>
<path d="M91.5275 109.28C91.2075 109.28 90.8877 109.158 90.6435 108.914L87.889 106.159C87.6545 105.925 87.5229 105.607 87.5229 105.275C87.5229 104.943 87.6547 104.626 87.889 104.391L90.6435 101.637C91.1317 101.149 91.923 101.149 92.4112 101.637L95.1657 104.391C95.4002 104.626 95.5317 104.943 95.5317 105.275C95.5317 105.607 95.4 105.925 95.1657 106.159L92.4112 108.914C92.1672 109.157 91.8475 109.28 91.5275 109.28ZM90.5407 105.275L91.5275 106.262L92.5142 105.275L91.5275 104.288L90.5407 105.275Z" fill="#6583FE"/>
<path d="M107.496 116.083C107.176 116.083 106.856 115.961 106.612 115.717L103.857 112.963C103.623 112.728 103.491 112.41 103.491 112.079C103.491 111.747 103.623 111.429 103.857 111.195L106.612 108.44C107.1 107.952 107.891 107.952 108.379 108.44L111.134 111.195C111.368 111.429 111.5 111.747 111.5 112.079C111.5 112.41 111.368 112.728 111.134 112.963L108.379 115.717C108.135 115.961 107.816 116.083 107.496 116.083ZM106.509 112.078L107.496 113.065L108.482 112.078L107.496 111.092L106.509 112.078Z" fill="#6583FE"/>
<path d="M50.6065 18.8818C49.9163 18.8818 49.3565 18.3221 49.3565 17.6318C49.3565 16.8023 48.6816 16.1273 47.8521 16.1273C47.1618 16.1273 46.6021 15.5676 46.6021 14.8773C46.6021 14.1871 47.1618 13.6273 47.8521 13.6273C48.6816 13.6273 49.3565 12.9523 49.3565 12.1228C49.3565 11.4326 49.9163 10.8728 50.6065 10.8728C51.2968 10.8728 51.8565 11.4326 51.8565 12.1228C51.8565 12.9523 52.5316 13.6273 53.3611 13.6273C54.0513 13.6273 54.6111 14.1871 54.6111 14.8773C54.6111 15.5676 54.0513 16.1273 53.3611 16.1273C52.5316 16.1273 51.8565 16.8023 51.8565 17.6318C51.8565 18.3223 51.2968 18.8818 50.6065 18.8818Z" fill="#6583FE"/>
</g>
<defs>
<linearGradient id="paint0_linear" x1="7.46726" y1="27.3587" x2="124.625" y2="110.78" gradientUnits="userSpaceOnUse">
<stop stop-color="#D2DEFF" stop-opacity="0"/>
<stop offset="1" stop-color="#B7C5FF"/>
</linearGradient>
<clipPath id="clip0">
<rect width="128" height="128" fill="white"/>
</clipPath>
</defs>
</svg>
